# xmcd CD database file
#
# Track frame offsets:
#	150
#	13299
#	25186
#	35533
#	48313
#	62620
#	73063
#	85843
#	97867
#	107848
#	118119
#	133521
#	143353
#	154844
#
# Disc length: 2302 seconds
#
# Revision: 0
# Processed by: cddbd v1.5.1PL2 Copyright (c) Steve Scherf et al.
# Submitted via: CDex 1.51
#
DISCID=b508fc0e
DTITLE=HUGO DUNCAN - IF I HAD TO DO IT AGAIN
DYEAR=1900
DGENRE=Country
TTITLE0=IF I HAD TO DO IT AGAIN
TTITLE1=VILLAGE IN COUNTY TYRONE
TTITLE2=GOLDEN JUBILEE
TTITLE3=FROM THE CANDY STORE ON THE CORNER TO THE CHAPEL ON THE HILL
TTITLE4=ROAD TO KIDARE
TTITLE5=WESTMEATH BACHELOR
TTITLE6=GOLDEN DREAMS
TTITLE7=DONEGAL ROSE
TTITLE8=THINK OF ME WHEN YOU'RE LONELY
TTITLE9=COME BACK HOME TO ERIN
TTITLE10=MOONLIGHT IN MAYO
TTITLE11=NO TEARS MY LADY
TTITLE12=LITTLE COUNTRY TOWN IN IRELAND
TTITLE13=YOU SELDOM COME TO SEE ME ANYMORE
EXTD=
EXTT0=
EXTT1=
EXTT2=
EXTT3=
EXTT4=
EXTT5=
EXTT6=
EXTT7=
EXTT8=
EXTT9=
EXTT10=
EXTT11=
EXTT12=
EXTT13=
PLAYORDER=
